<svg width="13" height="13" viewBox="0 0 13 13" fill="none" xmlns="http://www.w3.org/2000/svg">
<path d="M4.73549 2.13371C4.60981 2.13814 4.48452 2.11722 4.3671 2.07219C4.24968 2.02715 4.14254 1.95893 4.05206 1.87159C3.96158 1.78424 3.88962 1.67957 3.84047 1.56382C3.79132 1.44806 3.76599 1.32359 3.76599 1.19783C3.76599 1.07207 3.79132 0.947602 3.84047 0.831845C3.88962 0.716088 3.96158 0.611418 4.05206 0.524075C4.14254 0.436733 4.24968 0.368509 4.3671 0.323474C4.48452 0.27844 4.60981 0.257517 4.73549 0.261953L11.7987 0.261953C12.0469 0.262107 12.2848 0.360758 12.4603 0.536236C12.6358 0.711713 12.7344 0.949667 12.7346 1.19783L12.7346 8.26106C12.739 8.38674 12.7181 8.51202 12.6731 8.62944C12.628 8.74686 12.5598 8.854 12.4725 8.94448C12.3851 9.03496 12.2805 9.10692 12.1647 9.15607C12.0489 9.20522 11.9245 9.23055 11.7987 9.23055C11.673 9.23055 11.5485 9.20522 11.4327 9.15607C11.317 9.10692 11.2123 9.03496 11.125 8.94449C11.0376 8.85401 10.9694 8.74686 10.9244 8.62944C10.8793 8.51202 10.8584 8.38674 10.8628 8.26106L10.8628 3.45806L2.3075 12.0134C2.13188 12.189 1.89369 12.2877 1.64532 12.2877C1.39696 12.2877 1.15877 12.189 0.983148 12.0134C0.807528 11.8378 0.708865 11.5996 0.708864 11.3512C0.708865 11.1029 0.807527 10.8647 0.983147 10.689L9.53848 2.13371L4.73549 2.13371Z" fill="white"/>
</svg>
