<svg xmlns="http://www.w3.org/2000/svg" version="1.1" xmlns:xlink="http://www.w3.org/1999/xlink" xmlns:svgjs="http://svgjs.dev/svgjs" width="41" height="28"><svg width="41" height="28" viewBox="0 0 41 28" fill="none" xmlns="http://www.w3.org/2000/svg">
<path d="M15.0842 1.98734L1.03656 24.6123C0.148399 26.0428 1.17712 27.8924 2.86088 27.8924L9.69204 27.8924C10.4187 27.8924 11.0961 27.5248 11.4923 26.9156L19.76 14.2014C20.1561 13.5922 20.8335 13.2247 21.5602 13.2247H32.08C32.7519 13.2247 33.3851 12.9102 33.7911 12.3748L39.7378 4.53171C40.81 3.11754 39.8013 1.08696 38.0266 1.08697L31.5759 1.08697C30.9068 1.08697 30.276 1.39883 29.8697 1.93043L22.0036 12.2233C21.418 12.9896 20.1974 12.6552 20.0843 11.6974L19.041 2.86806C18.8026 0.850641 16.1557 0.261485 15.0842 1.98734Z" fill="#D0FF00"></path>
</svg><style>@media (prefers-color-scheme: light) { :root { filter: contrast(1) brightness(0.1); } }
@media (prefers-color-scheme: dark) { :root { filter: none; } }
</style></svg>